<?xml version="1.0" standalone="no"?>
<!DOCTYPE svg PUBLIC "-//W3C//DTD SVG 20010904//EN"
 "http://www.w3.org/TR/2001/REC-SVG-20010904/DTD/svg10.dtd">
<svg version="1.0" xmlns="http://www.w3.org/2000/svg"
 width="608.000000pt" height="608.000000pt" viewBox="0 0 608.000000 608.000000"
 preserveAspectRatio="xMidYMid meet">
<metadata>
Created by potrace 1.14, written by Peter Selinger 2001-2017
</metadata>
<g transform="translate(0.000000,608.000000) scale(0.100000,-0.100000)"
fill="#000000" stroke="none">
<path d="M2966 6072 c-6 -11 -8 -61 -6 -164 1 -42 0 -81 -3 -85 -3 -5 -2 -15
2 -22 5 -7 5 -30 1 -52 -4 -22 -3 -39 2 -39 5 0 6 -5 2 -11 -3 -6 -6 -31 -6
-55 1 -39 -1 -44 -21 -44 -12 0 -48 0 -80 1 l-59 0 3 -35 c2 -19 1 -38 -3 -41
-3 -3 -2 -21 2 -39 4 -19 4 -39 0 -46 -4 -7 -4 -27 0 -46 4 -18 5 -36 2 -39
-4 -3 -5 -22 -3 -42 l3 -35 -51 3 c-28 2 -51 1 -51 -2 0 -3 -13 -4 -28 -1 -27
4 -29 2 -31 -40 -2 -23 -2 -50 -2 -58 2 -39 -1 -115 -5 -121 -2 -4 0 -10 6
-14 6 -4 7 -12 3 -18 -4 -7 -6 -25 -4 -40 3 -28 3 -28 -61 -28 -35 1 -71 0
-80 0 -13 0 -17 -8 -16 -33 1 -18 -2 -38 -6 -44 -3 -6 -2 -13 3 -17 6 -3 8
-12 5 -19 -7 -18 -10 -116 -4 -116 3 0 4 -19 3 -41 -1 -45 -17 -63 -44 -49 -9
5 -19 7 -22 3 -4 -3 -30 -5 -59 -4 -37 0 -49 -2 -41 -10 7 -7 8 -22 3 -40 -11
-36 -11 -32 0 -68 10 -37 1 -41 -85 -41 -52 0 -66 -4 -74 -18 -6 -10 -6 -24
-1 -32 5 -8 7 -17 4 -21 -2 -4 -5 -26 -6 -49 -1 -38 -4 -41 -27 -40 -14 1 -30
1 -36 0 -5 -1 -29 -1 -51 0 -29 1 -43 -3 -47 -14 -4 -9 -3 -16 2 -16 5 0 5
-17 1 -38 -4 -21 -3 -48 1 -60 5 -12 7 -23 6 -23 -11 -7 -108 -12 -134 -8 -26
4 -34 -3 -33 -28 1 -16 1 -32 0 -38 -1 -5 -2 -29 -1 -52 1 -33 -3 -42 -17 -42
-61 -2 -126 0 -132 4 -4 3 -10 -9 -12 -26 -3 -16 -2 -31 1 -33 3 -2 4 -29 3
-59 l-4 -55 -34 8 c-19 4 -36 4 -39 0 -3 -5 -18 -5 -34 0 -31 9 -75 -10 -54
-23 7 -4 8 -20 4 -39 -4 -18 -4 -47 -1 -65 5 -23 3 -33 -6 -37 -8 -3 -14 -1
-14 3 0 5 -15 6 -32 2 -18 -4 -45 -4 -60 0 -17 4 -31 3 -36 -4 -14 -18 -21
-57 -10 -57 5 0 6 -5 2 -11 -3 -6 -6 -28 -6 -50 1 -33 -2 -39 -21 -39 -12 0
-30 0 -39 0 -10 0 -25 0 -33 0 -59 1 -64 -2 -63 -35 1 -17 -2 -37 -6 -43 -4
-7 -3 -12 3 -12 6 0 9 -6 7 -12 -3 -7 -7 -25 -10 -39 -5 -25 -8 -26 -46 -19
-22 4 -42 4 -45 0 -2 -4 -17 -5 -33 -2 -26 3 -30 1 -34 -26 -2 -16 -1 -39 4
-51 4 -12 4 -21 0 -21 -5 0 -6 -15 -4 -32 l4 -33 -51 0 c-28 0 -51 3 -51 6 0
3 -13 4 -29 1 -24 -3 -30 -9 -33 -37 -2 -19 0 -43 4 -55 4 -12 4 -19 0 -16 -5
3 -6 -8 -4 -25 l4 -29 -74 0 c-82 0 -99 -9 -89 -49 4 -14 6 -37 4 -51 -6 -43
-5 -119 1 -129 4 -5 2 -12 -3 -15 -6 -4 -6 -18 -1 -36 6 -21 4 -32 -6 -41 -8
-6 -14 -7 -14 -2 0 5 -24 6 -56 3 -30 -3 -58 -2 -60 2 -13 20 -32 -14 -25 -45
3 -18 4 -57 1 -87 -3 -30 -2 -72 1 -93 4 -20 3 -37 -1 -37 -3 0 -5 -14 -2 -31
l4 -30 -63 0 c-35 1 -72 1 -81 0 -14 0 -17 -10 -18 -47 -1 -125 0 -174 5 -182
3 -5 1 -11 -4 -14 -5 -3 -5 -21 -1 -41 4 -19 4 -35 0 -35 -4 0 -4 -18 0 -40 4
-22 4 -43 0 -45 -4 -3 -4 -21 0 -40 4 -19 5 -35 1 -35 -5 0 -5 -17 -2 -37 4
-21 4 -64 1 -96 -3 -32 -2 -61 2 -63 5 -3 6 -10 3 -15 -8 -12 -9 -164 -2 -176
3 -4 2 -27 -2 -50 l-8 -41 34 -1 c18 -1 40 -2 48 -1 143 3 229 -1 240 -10 9
-7 10 -21 6 -43 -4 -18 -4 -44 0 -59 4 -17 3 -31 -3 -34 -17 -11 13 -23 36
-14 12 4 30 4 41 0 11 -4 32 -4 46 0 15 4 32 4 39 0 7 -4 24 -5 39 -1 14 4 35
6 46 5 11 -1 32 -4 48 -5 26 -3 32 -11 27 -34 -5 -22 -3 -82 3 -106 7 -28 4
-28 77 -11 3 1 22 -3 43 -7 20 -5 39 -5 42 -1 3 4 21 4 40 0 19 -4 35 -4 35 0
0 4 16 4 35 0 19 -4 37 -4 40 0 3 4 20 5 37 1 18 -4 42 -6 53 -5 24 3 62 4 90
4 11 0 46 0 78 1 32 0 61 -2 64 -4 3 -3 15 -2 27 3 13 4 29 5 36 0 7 -4 26 -4
41 0 16 5 29 6 29 2 0 -4 38 -7 85 -7 47 0 85 3 85 6 0 4 16 3 34 -1 19 -4 38
-5 41 -2 3 3 30 5 59 4 l53 -1 -7 39 c-4 22 -4 40 1 40 4 0 4 13 -1 29 -11 38
-1 50 38 49 18 -1 35 1 38 4 3 3 20 2 38 -2 19 -4 39 -4 46 0 7 4 27 4 46 0
18 -4 36 -5 39 -2 3 4 21 5 39 4 30 -3 34 0 38 26 2 17 1 39 -4 51 -4 12 -4
21 1 21 4 0 6 13 3 30 -4 30 -4 30 44 31 27 1 67 0 89 -1 30 -1 37 1 29 10 -7
7 -9 24 -4 46 4 19 5 34 1 34 -5 0 -5 19 -1 43 3 24 3 55 -1 70 -4 15 -4 27 0
27 4 0 6 19 4 43 -4 46 -9 43 67 49 8 1 31 0 51 0 36 -2 37 -3 35 -38 -1 -20
1 -37 4 -39 3 -2 3 -40 0 -85 -3 -45 -2 -84 3 -87 4 -2 5 -8 3 -12 -4 -6 -7
-69 -6 -121 1 -32 1 -157 0 -195 -2 -64 -2 -78 -1 -105 1 -14 1 -34 1 -45 -1
-32 -2 -126 -1 -181 0 -46 -2 -52 -22 -53 -12 0 -33 -2 -47 -4 -14 -2 -37 0
-52 4 -17 5 -30 3 -34 -3 -9 -13 -8 -124 0 -137 4 -5 2 -13 -4 -16 -17 -10
-130 -11 -133 -1 -2 5 -10 1 -19 -8 -13 -12 -15 -23 -8 -46 5 -17 5 -30 1 -30
-5 0 -5 -18 -1 -40 l7 -40 -53 3 c-30 1 -54 0 -54 -3 0 -3 -15 -5 -32 -4 l-33
2 2 -72 c1 -39 2 -75 3 -80 0 -4 14 -6 30 -4 17 3 30 2 30 -1 0 -7 165 -5 184
2 8 3 17 3 21 -1 3 -3 16 -7 28 -7 24 0 39 -39 25 -67 -4 -9 -4 -19 0 -22 5
-3 7 -19 6 -35 -2 -29 0 -31 34 -32 21 -1 48 -1 62 0 31 1 64 1 160 1 24 0 48
-4 53 -9 8 -8 12 -85 6 -118 -5 -30 3 -33 87 -33 55 0 83 4 79 10 -10 17 -9
130 1 140 6 6 39 10 75 10 89 -1 97 -1 157 0 29 0 57 -2 62 -5 5 -3 12 7 16
22 3 15 7 34 10 41 2 8 -1 10 -8 6 -7 -5 -8 -3 -3 6 4 7 7 31 7 53 -1 22 1 38
4 35 3 -4 18 -3 33 2 16 4 34 4 41 0 7 -4 25 -4 40 0 15 4 33 4 40 0 7 -4 25
-4 40 0 15 4 34 3 43 -2 10 -5 17 -5 17 -1 0 5 16 7 36 5 27 -3 35 -1 29 8
-10 15 -12 120 -3 120 4 0 5 7 1 16 -4 10 -14 14 -29 11 -13 -2 -24 -1 -24 4
0 4 -13 4 -30 -1 -16 -5 -30 -5 -30 -1 0 4 -10 7 -22 7 -17 -1 -23 6 -29 31
-3 18 -2 36 4 42 7 7 7 11 1 11 -6 0 -8 16 -6 36 3 20 1 34 -4 32 -5 -3 -18
-2 -29 2 -11 4 -30 3 -43 -1 -13 -5 -21 -5 -18 -1 2 4 -10 6 -29 4 l-33 -4 0
49 c0 26 -1 53 -2 58 -1 6 -3 19 -4 30 -1 23 -48 36 -84 23 -13 -4 -21 -4 -18
0 3 5 -7 7 -22 4 -24 -3 -28 0 -31 25 -3 28 -3 78 2 123 1 14 -1 39 -4 56 -4
18 -3 38 1 44 4 7 4 26 0 41 -5 16 -5 31 0 34 4 3 5 20 1 37 -3 18 -4 56 -1
83 3 28 2 64 -1 81 -4 18 -3 38 1 44 4 7 4 26 0 41 -5 17 -5 31 1 35 5 3 7 10
3 15 -3 5 -5 51 -4 102 2 144 2 161 -2 176 -4 17 43 26 123 23 36 -2 37 -3 35
-38 -1 -20 1 -37 5 -39 3 -2 3 -26 -1 -53 -3 -27 -3 -61 1 -75 4 -15 4 -27 -1
-27 -4 0 -6 -15 -4 -32 8 -62 10 -65 57 -59 23 4 56 4 72 1 25 -4 31 -11 36
-40 3 -19 2 -42 -1 -50 -4 -8 -3 -28 1 -45 8 -28 12 -30 54 -30 25 0 45 3 45
6 0 4 18 3 40 -1 22 -4 42 -5 44 -1 4 6 31 6 104 0 30 -3 38 -11 32 -34 -5
-20 -3 -82 3 -107 6 -23 10 -25 39 -19 41 10 45 10 86 0 17 -4 34 -3 37 1 3 4
21 4 40 0 19 -4 35 -4 35 0 0 4 16 4 35 0 19 -4 37 -4 40 0 3 4 20 5 37 1 18
-4 42 -6 53 -5 24 3 62 4 90 4 11 0 46 0 78 1 32 0 61 -2 64 -4 3 -3 15 -2 27
3 13 4 29 5 36 0 7 -4 26 -4 41 0 16 5 29 6 29 2 0 -4 38 -7 85 -7 47 0 85 3
85 6 0 4 16 3 34 -1 19 -4 38 -5 41 -2 3 3 30 5 59 4 l53 -1 -7 39 c-4 22 -4
40 1 40 4 0 4 13 -1 28 -8 31 5 66 21 56 15 -9 129 -10 129 -1 0 5 5 5 10 2
18 -11 141 -7 155 5 10 8 11 18 5 35 -5 13 -7 25 -4 27 2 3 5 23 6 46 1 38 4
42 27 42 14 0 55 -1 91 0 36 0 90 0 120 -1 92 -1 87 -4 81 43 -3 24 -4 73 -1
110 3 36 3 77 0 90 -3 13 -3 42 0 66 4 23 3 45 -2 48 -4 3 -6 10 -3 15 4 5 6
44 5 87 -1 92 -1 105 -1 182 0 33 0 66 0 73 0 6 0 42 1 79 1 37 -1 71 -3 76
-3 4 -2 14 2 21 12 18 -2 66 -20 67 -8 1 -16 3 -19 4 -14 5 -80 4 -80 -2 0 -3
-9 -4 -21 -1 -14 4 -19 12 -16 24 3 11 1 22 -4 25 -5 3 -7 9 -4 14 5 8 6 42 4
110 0 8 0 41 1 73 1 33 -2 63 -8 69 -9 9 -104 14 -131 7 -21 -6 -24 21 -20
196 3 133 4 131 -85 127 l-74 -4 0 37 c0 20 -3 39 -6 42 -3 3 -1 13 3 22 11
21 -5 64 -21 58 -7 -2 -23 0 -35 4 -15 5 -23 5 -23 -2 0 -6 -5 -7 -11 -3 -7 4
-23 7 -38 8 -28 1 -44 38 -29 68 4 9 4 19 0 22 -5 3 -7 18 -6 34 2 28 -1 30
-40 34 -22 3 -55 1 -73 -3 -27 -6 -33 -4 -39 14 -7 22 -9 102 -3 127 3 8 -4
15 -16 17 -45 5 -60 6 -70 3 -5 -1 -24 -2 -41 -1 -27 1 -31 4 -30 29 1 15 -2
35 -7 45 -4 9 -4 17 1 17 5 0 6 15 3 33 -6 25 -12 32 -29 31 -12 0 -22 3 -22
7 0 4 -13 4 -30 -1 -16 -5 -30 -5 -30 -1 0 4 -14 5 -31 3 -24 -4 -30 -2 -24 8
12 19 8 129 -5 144 -7 10 -20 12 -38 7 -27 -7 -75 -6 -98 3 -14 5 -14 7 -14
100 1 54 -1 58 -20 53 -11 -3 -20 -2 -20 1 0 8 -73 7 -87 -1 -14 -9 -37 9 -30
25 3 8 2 20 -3 27 -4 7 -4 27 0 44 12 57 -3 72 -68 70 -32 -1 -64 -3 -71 -5
-7 -2 -15 7 -17 20 -2 12 -6 32 -8 45 -2 12 0 32 5 43 14 38 -37 73 -75 52 -9
-5 -16 -5 -16 -1 0 5 -15 8 -34 7 -33 -2 -34 0 -38 37 -2 22 1 44 6 49 7 7 6
10 -1 10 -6 0 -8 11 -5 25 5 31 -6 36 -89 38 -52 2 -64 5 -64 19 0 9 -3 20 -7
23 -4 4 -3 17 1 29 4 11 5 35 2 51 -5 27 -10 31 -36 30 -16 0 -33 5 -37 10 -5
6 -8 6 -8 -1 0 -12 -59 -6 -77 8 -7 6 -9 19 -4 36 7 28 6 75 -3 99 -3 7 -1 13
4 13 5 0 7 6 4 14 -9 24 -10 79 -2 103 9 27 -8 42 -50 43 -18 0 -46 0 -63 0
-40 1 -52 8 -46 30 2 9 1 24 -4 32 -4 7 -4 20 1 27 4 8 4 27 0 42 -5 16 -5 31
0 34 4 3 4 21 0 40 -4 20 -4 38 1 41 5 3 6 11 2 17 -4 7 -6 20 -5 30 2 9 -3
19 -10 22 -24 9 -83 12 -104 4 -23 -8 -37 -1 -43 21 -4 17 -3 91 2 130 1 14 0
40 -4 58 -4 17 -3 34 1 37 4 3 4 19 1 37 -6 26 -12 33 -29 32 -12 0 -22 3 -22
6 0 4 -18 4 -40 0 -22 -4 -40 -4 -40 1 0 5 -7 6 -15 3 -11 -5 -14 5 -15 48 0
29 -1 60 -1 68 -1 8 0 42 0 75 0 33 0 67 0 75 0 8 0 54 1 102 1 48 -1 92 -5
97 -7 13 -141 15 -149 3z"/>
</g>
</svg>
